<svg 
  viewBox="0 0 24 24" 
  xmlns="http://www.w3.org/2000/svg" 
  width="32" 
  height="32"
>
  <defs>
    <!-- Vibrant orange gradient for modern pop -->
    <linearGradient id="orangeShine" x1="0%" y1="0%" x2="100%" y2="100%">
      <stop offset="0%" stop-color="#c2410c" />      <!-- deep orange -->
      <stop offset="50%" stop-color="#f97316" />     <!-- bright orange shine -->
      <stop offset="100%" stop-color="#9a3412" />    <!-- shadow depth -->
    </linearGradient>
  </defs>

  <!-- Key body -->
  <path 
    fill="url(#orangeShine)" 
    d="M21 10c0-4.97-4.03-9-9-9s-9 4.03-9 9c0 3.31 1.79 6.2 4.45 7.73l-.4 2.27h3l.4-2.27A8.97 8.97 0 0012 19c1.66 0 3.2-.45 4.55-1.27l.4 2.27h3l-.4-2.27C19.21 16.2 21 13.31 21 10z"
  />

  <!-- Gear fusion -->
  <path 
    fill="url(#orangeShine)" 
    d="M12 5.5l1.2 1.8 2-.3 1.3 1.7 1.8.8-.9 1.9.3 2-1.7 1.3-1.8.8.9-1.9-.3-2 1.7-1.3z"
    transform="scale(0.5) translate(14, 7)" 
  />

  <!-- Center hole -->
  <circle cx="12" cy="10" r="2.5" fill="#431407" opacity="0.4"/>
</svg>